P2
100 100
100
88 18 89 94 85 39 72 18 89 19 40 55 22 38 96 75 96 31 68 30 20 10 8 67 81 19 12 35 93 73 6 23 73 38 11 4 62 21 31 19 74 85 71 15 43 84 38 71 26 25 90 2 73 57 65 45 12 31 27 46 73 25 72 2 40 6 55 5 85 91 45 48 17 16 78 95 89 62 60 12 46 10 6 19 1 72 3 89 59 51 37 30 77 84 84 48 49 76 90 99 
93 62 22 73 69 90 29 32 71 12 3 30 51 39 52 49 40 70 20 100 98 78 51 9 54 35 79 73 14 45 99 33 97 21 21 55 24 44 18 94 67 97 2 46 9 45 73 19 73 61 23 30 56 32 34 83 22 19 75 9 45 35 47 59 73 90 38 68 96 51 85 94 92 92 69 6 80 18 15 73 39 98 37 99 61 52 10 77 84 48 50 32 36 40 91 54 94 79 43 45 
72 59 94 15 31 100 21 51 67 87 67 99 16 86 52 73 2 52 32 78 62 14 48 77 15 88 54 42 40 92 61 33 72 7 23 33 50 48 100 44 35 24 60 11 50 61 7 2 1 54 48 59 19 23 18 90 85 42 43 50 78 91 3 12 1 40 10 91 38 65 50 85 97 52 40 61 36 23 94 2 39 67 96 23 17 96 91 26 19 84 57 17 96 75 64 3 60 34 63 91 
67 28 40 9 76 85 79 21 58 2 62 82 11 5 96 74 24 87 86 46 27 14 16 100 20 46 85 62 18 86 1 82 19 62 44 23 78 37 94 73 15 26 31 43 95 21 10 73 64 55 59 23 79 53 59 99 92 28 87 65 35 12 3 28 73 14 70 35 80 18 40 96 98 88 95 54 78 67 4 28 98 97 16 22 44 96 91 29 27 30 38 87 76 89 75 64 17 16 51 23 
2 27 64 39 57 83 39 80 54 29 99 77 12 20 98 90 99 0 63 66 30 16 45 67 48 86 64 56 34 55 21 43 61 9 36 46 42 1 32 47 64 1 39 99 17 91 80 62 4 3 12 29 68 33 3 93 23 5 4 44 19 99 55 3 26 4 54 28 100 90 45 94 48 67 32 78 49 26 75 47 43 0 73 66 49 26 91 79 73 10 30 81 50 30 73 21 86 8 4 98 
41 21 71 65 53 12 52 23 25 29 42 44 85 79 63 12 4 39 74 17 14 56 0 9 82 1 61 21 6 99 100 85 47 36 53 57 71 59 32 94 86 100 21 75 59 60 91 34 21 11 27 96 15 44 77 99 86 90 12 37 69 55 23 63 51 90 82 34 98 78 75 47 42 36 1 55 100 82 89 27 49 24 91 79 56 11 49 66 23 41 11 53 57 5 15 35 83 62 59 8 
86 84 41 55 54 32 6 81 84 5 19 16 83 14 51 57 51 98 47 41 72 14 20 77 89 11 31 35 23 15 59 16 82 99 4 7 23 27 95 73 96 8 28 28 8 87 46 58 88 93 46 45 100 97 95 98 10 41 82 25 9 11 24 76 44 65 55 81 62 96 18 43 5 46 5 49 38 88 34 43 30 17 3 37 87 97 83 52 2 6 63 70 72 97 88 39 69 41 61 81 
34 27 65 41 16 77 84 65 8 60 24 14 72 56 22 54 98 39 68 46 48 13 58 36 66 83 77 97 21 80 27 57 100 37 12 84 5 53 66 79 82 75 15 96 40 26 1 17 18 17 24 64 91 1 89 48 2 54 6 63 44 64 97 75 29 52 89 82 10 71 24 50 99 28 31 90 6 37 43 80 17 5 64 84 4 83 80 2 0 5 76 88 99 97 12 45 76 27 89 25 
27 77 90 98 71 86 55 50 17 57 47 66 31 37 90 64 96 37 68 39 75 17 87 58 2 45 87 7 73 84 68 39 89 7 7 86 3 24 95 98 53 91 40 15 78 11 38 0 3 1 5 61 94 35 19 41 65 50 50 89 22 14 60 76 97 2 36 95 58 5 5 91 50 90 37 14 13 69 100 55 68 63 57 23 37 65 35 86 41 73 86 89 64 24 36 34 88 39 60 74 
74 46 21 22 96 53 8 5 47 93 82 39 79 99 15 45 64 3 56 31 2 50 50 51 49 13 58 83 58 82 9 6 89 45 26 10 32 14 95 47 85 16 44 90 95 76 16 57 4 38 25 30 10 83 11 35 24 68 81 67 63 14 84 61 35 14 38 23 53 24 36 57 43 20 36 34 55 12 69 36 80 62 80 96 86 89 53 59 45 15 51 86 93 42 10 93 57 92 12 38 
51 54 1 97 34 63 45 69 69 70 3 31 26 1 94 96 53 77 17 56 8 5 94 60 6 30 60 16 94 83 52 39 66 37 74 44 79 75 48 83 79 60 57 81 59 88 41 48 68 34 12 91 19 3 26 33 44 34 88 19 80 8 82 21 100 41 93 90 83 11 47 2 90 41 78 50 18 98 25 8 61 64 22 69 81 87 60 100 74 59 93 31 17 14 32 30 98 94 10 29 
73 28 16 21 6 50 84 4 26 46 35 41 9 62 27 30 3 13 97 77 95 44 100 1 36 72 71 33 9 56 52 14 17 75 29 80 38 39 52 59 28 48 14 74 34 58 36 84 40 58 73 64 56 87 4 19 57 21 100 36 88 84 98 44 37 15 76 90 84 99 86 97 41 56 24 90 63 42 3 85 65 16 6 51 32 64 50 6 0 2 55 23 31 32 100 100 4 70 24 66 
14 62 31 61 74 37 77 76 22 39 22 16 65 57 19 53 66 72 0 27 38 8 24 16 99 7 66 96 46 97 37 79 36 57 19 38 89 28 33 88 90 64 29 52 77 60 11 66 82 81 40 50 9 88 72 17 39 49 77 76 86 67 10 49 11 58 26 91 45 88 77 75 55 37 90 21 96 87 32 32 38 68 5 68 67 45 56 9 72 100 25 70 56 21 78 76 52 42 67 20 
70 93 82 51 100 83 68 84 51 14 55 10 100 44 62 10 67 81 83 67 39 96 4 27 72 69 76 97 72 68 43 5 14 42 73 41 51 46 57 86 55 42 13 46 87 81 33 77 68 94 36 76 69 17 49 63 87 46 9 26 45 50 42 23 12 48 52 75 52 90 6 33 32 28 50 83 55 40 43 79 66 68 37 86 63 39 80 86 19 1 43 51 33 98 51 54 76 63 15 80 
38 9 79 91 99 69 84 72 89 62 98 35 35 53 12 55 87 38 46 16 3 66 66 17 61 9 26 37 89 82 50 74 2 52 7 51 28 16 41 16 49 5 62 4 22 14 54 36 4 26 9 92 79 70 58 24 97 32 96 82 100 95 34 31 26 51 29 82 32 4 100 53 13 17 57 20 51 98 59 6 31 18 47 38 28 82 47 81 11 59 32 43 11 48 70 42 9 47 2 79 
16 83 84 34 5 82 32 18 17 7 14 91 38 80 48 8 96 41 42 60 96 76 92 80 36 57 21 99 41 70 48 41 70 9 40 56 97 85 93 4 8 27 92 69 100 50 17 1 70 100 99 74 57 72 42 32 54 21 75 97 26 43 55 81 5 85 65 56 71 63 2 72 23 56 49 41 26 32 16 89 34 78 40 12 77 27 99 62 42 94 51 11 4 47 26 12 31 64 47 36 
49 40 52 76 89 17 83 3 99 19 76 28 51 22 64 16 96 57 57 71 87 11 34 87 28 31 65 98 40 27 10 93 24 91 88 53 66 48 82 59 44 7 42 95 95 5 76 38 88 36 29 7 12 67 29 72 88 27 1 80 3 27 57 59 7 22 71 62 42 10 83 91 24 74 30 34 80 99 31 64 30 74 26 77 69 94 22 28 98 21 25 93 74 25 96 34 55 3 22 43 
73 92 0 6 86 52 58 81 87 13 35 34 16 85 31 31 30 21 16 8 10 31 51 86 18 24 13 68 85 94 41 40 95 37 31 5 39 70 69 84 78 30 58 51 73 17 97 5 39 21 23 2 22 49 37 52 96 83 89 34 43 86 77 55 69 18 30 56 82 89 6 8 97 42 87 1 99 37 31 68 76 77 18 81 45 75 27 13 20 71 93 42 13 92 0 36 39 85 78 73 
85 73 86 63 11 67 33 19 26 75 3 58 45 84 98 95 84 83 64 37 58 57 33 25 92 44 87 58 27 48 45 99 38 50 49 75 2 38 87 6 93 77 19 75 78 20 7 74 100 67 5 6 86 5 53 67 8 36 94 41 13 42 51 10 22 9 26 68 44 68 100 2 47 26 62 17 26 77 28 43 58 54 80 92 5 53 42 75 67 52 23 9 28 13 39 7 30 60 29 99 
35 27 2 82 77 9 65 88 72 71 78 93 71 65 27 49 0 74 15 79 3 22 3 12 55 49 56 99 93 0 86 97 87 25 4 100 81 3 8 16 29 32 77 6 97 20 60 78 36 42 47 3 71 14 21 91 31 79 28 45 52 65 22 20 60 13 21 49 8 77 29 21 86 73 58 5 53 92 79 84 100 70 36 8 11 55 32 53 2 27 20 56 58 2 51 44 73 98 2 45 
96 0 90 36 49 61 27 35 61 84 80 82 49 15 73 34 27 62 95 58 43 75 98 24 47 88 71 73 78 23 22 40 10 83 67 54 56 90 100 32 89 49 2 50 24 41 82 89 68 88 4 76 49 30 50 20 59 95 19 40 100 78 14 81 39 92 98 24 78 80 40 2 48 100 59 66 43 100 94 87 39 44 92 81 54 11 74 97 52 61 93 39 97 3 94 78 41 13 84 100 
55 20 61 42 26 15 30 22 96 24 63 8 40 81 24 16 19 78 30 97 15 89 33 6 100 82 8 40 22 13 91 48 8 57 55 88 88 2 41 71 6 74 35 28 73 91 27 73 15 30 41 89 99 8 75 95 60 93 58 51 92 31 49 94 30 74 5 54 9 35 0 9 12 79 3 89 52 17 28 100 64 68 52 79 10 19 45 59 71 44 19 79 92 54 5 67 47 68 33 21 
63 3 76 6 47 79 86 36 30 51 80 1 42 43 15 50 94 77 37 81 34 25 61 69 50 18 8 95 99 48 50 36 88 31 91 30 53 42 47 86 72 72 6 60 8 78 58 26 63 30 29 18 47 82 45 18 15 51 45 93 18 64 2 98 4 49 51 68 55 49 0 77 92 10 32 83 15 78 48 53 11 32 32 15 62 41 24 76 8 83 90 94 53 64 87 96 3 62 9 93 
59 61 83 9 92 85 97 67 59 4 98 24 58 12 95 58 82 88 76 56 85 79 44 72 84 22 80 17 9 95 87 64 83 55 23 83 47 19 7 96 96 0 100 46 1 64 69 96 8 87 36 39 12 7 83 92 63 51 2 71 6 49 76 72 51 74 56 58 67 73 89 11 40 24 40 30 13 67 29 87 95 18 67 84 66 30 19 87 24 8 4 46 38 31 69 79 75 45 23 8 
76 50 33 86 32 100 9 57 96 52 0 97 61 44 76 45 53 11 57 81 23 88 35 11 38 94 87 62 28 96 88 55 32 19 78 64 90 79 6 41 13 84 28 90 53 69 52 0 51 37 95 26 44 98 25 86 43 25 6 89 85 34 32 88 23 67 88 33 72 83 50 35 88 30 34 2 42 5 32 5 75 67 16 19 4 15 55 99 49 63 75 96 12 95 34 44 57 42 53 14 
2 1 23 60 33 63 36 18 78 53 88 69 8 37 39 72 82 43 39 30 42 100 41 66 45 26 62 87 13 41 54 98 21 37 60 97 65 78 68 90 37 51 27 21 71 35 75 42 43 99 71 39 24 69 80 68 1 44 75 1 63 38 96 76 14 77 84 82 0 84 91 59 22 7 50 59 83 4 79 14 85 21 49 8 31 35 24 88 21 35 12 25 49 23 55 1 27 73 56 1 
20 27 22 98 13 87 5 44 84 57 35 63 24 23 54 59 72 80 33 53 73 68 7 73 77 67 66 40 53 94 29 10 92 0 37 20 19 92 8 47 44 32 27 78 93 41 98 2 42 7 55 38 45 9 84 27 96 100 18 60 41 76 34 67 86 2 38 1 14 38 34 20 51 95 67 62 27 68 42 77 32 96 33 17 69 25 56 22 32 26 31 31 22 37 52 42 90 6 84 31 
67 10 38 20 82 52 22 65 65 34 43 40 57 87 42 24 84 20 20 70 14 18 22 40 65 11 54 99 68 50 35 43 60 7 12 15 73 19 18 51 80 74 20 4 56 40 98 65 11 98 77 50 29 78 95 29 49 41 49 80 0 1 48 100 99 9 97 23 7 1 7 88 71 99 13 59 51 49 71 45 54 15 91 6 70 54 94 45 93 10 67 66 85 79 11 96 83 66 8 74 
29 51 57 11 18 49 84 62 28 69 93 17 98 44 90 35 73 2 94 2 82 2 57 62 35 62 97 55 68 38 16 44 25 11 34 6 27 21 27 76 18 19 5 49 37 52 82 26 66 69 24 66 85 83 33 64 86 94 75 1 47 16 22 49 32 73 32 12 72 93 47 75 13 50 24 36 50 3 53 6 4 33 75 56 92 41 60 49 86 46 2 63 95 56 9 72 46 75 3 88 
61 55 23 84 79 32 76 93 52 92 50 40 24 36 16 51 77 70 93 76 15 15 79 80 53 41 65 87 6 91 69 34 75 70 74 48 83 41 2 75 24 78 44 0 74 52 64 89 39 55 21 37 5 44 75 96 46 11 54 5 16 54 52 23 31 78 7 99 84 99 60 25 19 93 40 25 49 5 17 21 43 83 17 51 55 22 87 69 67 88 36 8 8 90 2 89 0 79 24 9 
56 63 3 62 26 48 50 61 94 21 19 4 38 65 11 29 57 100 0 17 43 6 61 67 48 12 83 51 64 97 61 27 7 52 30 46 16 59 64 92 51 61 98 93 8 52 2 5 48 49 40 2 74 83 58 90 75 88 71 57 99 27 47 76 6 18 23 96 70 75 63 51 40 35 66 60 50 81 36 64 24 4 33 1 39 91 7 67 89 68 44 2 77 89 47 16 34 61 51 3 
8 61 65 85 43 56 36 90 43 41 52 0 88 31 60 64 42 29 21 10 48 56 52 52 82 14 73 61 52 29 37 6 18 95 81 73 28 13 7 59 46 66 24 1 27 57 45 70 10 67 5 26 4 57 25 61 94 6 61 30 37 16 65 54 71 34 100 46 95 16 61 13 30 83 18 95 49 90 43 72 12 53 46 0 66 13 85 10 1 49 96 83 67 97 43 45 72 10 71 47 
48 95 24 59 17 76 37 82 5 94 47 38 69 83 33 0 88 11 76 72 77 38 52 71 69 16 37 48 26 6 12 66 50 95 50 45 41 98 17 50 96 71 53 81 95 1 35 28 29 89 3 88 15 85 86 69 71 100 71 31 49 3 46 74 12 40 63 50 3 28 46 64 22 71 26 27 89 55 57 68 6 26 99 60 51 82 58 89 47 64 40 82 51 25 15 10 91 18 30 41 
0 16 44 39 89 43 89 7 46 58 98 37 72 42 35 78 73 89 52 80 34 27 63 73 51 33 26 63 100 47 48 1 53 23 13 43 60 21 33 10 70 64 0 26 49 16 29 16 78 23 42 57 12 14 51 7 10 4 96 56 3 95 82 27 38 93 3 53 47 95 11 38 18 25 34 82 53 16 83 81 2 88 53 86 22 71 51 88 98 38 57 25 80 76 97 62 81 36 55 68 
96 91 44 97 44 79 73 9 42 92 26 65 81 5 43 55 95 1 56 79 36 49 22 57 27 96 29 4 77 25 45 21 33 94 21 48 11 73 68 62 95 61 2 90 84 16 96 48 19 18 30 86 88 20 28 72 30 66 75 86 47 66 88 31 12 25 80 71 67 38 8 16 75 67 70 8 79 72 9 13 33 51 7 46 39 17 27 60 6 86 54 10 91 67 88 50 54 97 81 32 
35 62 88 44 54 58 99 17 44 5 52 95 32 93 78 40 100 17 84 2 20 92 44 22 22 30 85 52 29 69 1 85 12 56 20 82 15 40 76 72 54 20 38 13 2 83 47 51 49 13 22 62 9 80 82 45 4 61 69 52 97 60 89 68 32 60 15 60 67 28 98 86 20 31 74 86 90 8 90 47 18 33 2 81 86 37 73 84 11 86 8 55 75 12 32 24 94 69 28 90 
99 25 79 89 52 82 90 38 43 79 39 14 34 7 7 96 36 41 93 34 45 60 63 35 98 28 6 82 68 73 96 76 35 55 90 68 98 81 76 92 56 75 41 81 21 48 26 65 82 19 18 62 42 51 28 58 22 57 45 99 73 49 1 89 4 32 26 98 57 9 47 14 27 14 70 20 26 92 39 28 12 87 55 35 96 52 50 70 89 26 34 5 42 26 52 37 37 88 0 40 
55 73 8 87 15 49 43 51 64 78 48 19 56 78 7 82 5 25 52 98 14 80 93 93 75 76 59 65 67 33 68 44 85 35 15 70 9 47 48 76 33 37 5 94 39 34 63 28 71 1 5 5 77 98 92 37 7 66 27 53 74 68 22 18 64 96 1 29 18 11 56 31 11 3 55 44 8 74 99 21 28 84 63 36 57 50 62 1 4 20 27 6 54 10 3 40 4 12 35 99 
51 79 72 22 89 35 75 45 40 1 29 16 52 40 67 71 36 11 18 37 65 32 90 68 37 56 79 37 74 25 92 93 7 4 35 17 5 72 80 5 30 61 16 6 72 23 10 12 45 91 63 11 88 19 26 58 13 50 72 46 33 74 23 17 46 65 36 81 58 12 78 72 62 96 91 22 56 88 8 58 73 100 80 4 22 15 83 92 73 82 63 54 56 93 64 3 31 53 100 40 
80 34 68 2 79 99 8 28 51 67 80 85 43 57 11 88 87 32 11 52 55 92 74 73 98 72 6 62 27 40 97 35 73 17 84 72 27 43 72 61 18 20 67 95 5 100 73 58 81 98 87 70 59 7 57 4 92 73 12 10 33 57 13 52 77 80 53 57 0 73 54 0 70 66 63 37 91 27 31 59 13 7 74 45 84 64 3 80 57 82 46 63 77 28 49 93 43 8 37 92 
38 53 54 100 13 2 4 30 41 42 17 93 47 26 32 68 66 72 50 3 64 10 53 98 19 53 85 72 18 59 35 69 96 55 14 13 99 42 57 86 94 71 40 77 99 3 11 56 55 5 61 79 37 71 83 0 26 50 47 52 1 46 36 28 18 40 50 54 66 21 73 36 54 97 55 29 67 85 98 17 3 26 13 86 10 12 94 69 19 27 22 51 2 63 37 47 56 29 58 36 
99 93 99 69 6 53 1 27 86 57 14 42 70 90 85 74 55 56 20 4 13 30 89 18 13 88 40 27 14 24 66 47 90 87 30 19 50 64 6 7 4 19 30 42 43 54 94 8 57 34 5 7 38 61 1 78 94 41 57 49 49 71 42 61 41 94 28 91 33 44 92 19 63 40 95 23 42 69 89 88 81 49 99 11 14 2 13 79 10 82 46 87 5 21 0 81 81 85 74 50 
4 12 69 2 60 56 94 28 63 74 60 51 86 28 83 75 63 98 19 90 3 40 31 39 99 62 94 99 74 87 53 47 16 21 18 82 29 31 17 11 61 15 97 69 30 25 35 37 24 80 88 8 3 56 43 97 81 39 4 35 98 24 18 22 68 29 49 12 87 99 91 88 7 14 16 85 23 49 55 86 57 74 52 63 98 41 3 17 74 78 14 99 23 62 43 98 75 85 12 22 
15 60 5 85 51 68 81 42 86 93 1 32 61 51 52 81 22 45 55 10 77 5 91 70 78 93 5 18 27 84 45 98 26 74 30 65 13 37 77 88 63 61 14 12 3 33 96 5 73 60 50 6 7 100 29 74 38 47 5 24 34 70 84 71 21 50 38 85 3 56 64 96 96 28 13 56 21 29 61 71 35 76 72 17 84 27 96 7 37 55 49 33 19 77 78 0 59 85 13 24 
36 83 44 74 77 50 79 28 99 54 82 92 52 79 29 49 14 47 99 13 46 31 22 44 28 88 5 93 80 71 71 1 86 76 4 12 97 98 13 60 79 2 54 63 17 97 47 28 24 21 88 50 58 100 2 37 76 20 44 53 59 57 63 56 57 44 88 79 57 95 10 35 39 27 52 18 34 56 62 67 28 59 2 89 51 56 45 40 84 62 87 16 43 17 35 78 88 43 96 82 
95 63 60 2 73 28 97 23 90 66 70 20 0 5 4 91 11 21 69 93 3 14 51 94 2 39 24 25 32 18 100 61 75 80 26 18 76 86 37 15 38 16 48 60 18 54 31 33 23 42 57 28 63 49 14 37 90 47 45 48 78 9 40 28 27 91 81 91 34 96 19 34 73 44 7 3 93 98 15 63 79 77 100 59 77 72 54 43 79 11 63 20 86 12 60 55 67 70 19 81 
94 32 78 79 65 77 66 94 6 26 22 73 11 100 64 91 20 38 86 54 72 97 77 9 46 4 74 56 43 57 38 28 47 73 42 61 45 45 6 10 91 61 13 14 77 63 55 98 1 94 14 41 52 23 23 7 29 9 62 75 62 64 18 7 0 89 62 39 34 61 16 69 63 83 22 42 100 92 38 44 3 31 86 19 69 38 87 42 18 11 55 88 22 71 27 65 40 38 52 44 
25 61 20 8 17 9 54 37 86 22 88 23 97 92 32 63 66 57 29 76 88 72 18 43 95 27 74 47 81 100 30 50 90 85 77 50 78 18 13 68 79 16 84 72 11 5 69 62 89 7 6 99 84 59 20 60 27 51 54 72 12 15 55 91 80 63 38 18 31 8 31 65 34 64 0 42 69 9 70 6 30 1 23 91 74 28 88 88 95 45 1 37 41 44 15 27 63 29 47 94 
7 95 98 27 32 7 87 33 6 74 22 90 53 19 50 0 55 42 73 7 40 21 100 33 22 82 39 55 98 99 27 6 100 29 14 0 91 18 89 25 49 73 70 76 44 98 74 84 11 97 41 87 99 51 53 28 68 24 57 83 99 54 50 66 88 8 56 46 52 49 97 23 27 15 40 32 72 10 50 61 77 34 3 21 19 43 27 75 80 62 68 32 31 95 78 5 69 79 97 25 
84 8 25 23 30 13 6 83 73 92 81 35 56 4 12 98 76 18 56 59 66 18 87 31 16 85 98 9 30 77 36 60 79 74 96 47 95 85 68 55 65 97 5 100 76 88 73 27 36 26 19 93 47 78 85 19 12 30 100 27 18 86 33 40 96 63 6 6 0 68 23 89 3 53 11 31 89 14 40 56 78 25 48 22 22 71 46 83 59 93 55 46 26 83 62 93 47 37 92 98 
92 62 44 30 100 13 7 73 85 62 4 71 63 59 95 89 19 52 39 80 65 46 82 46 94 1 18 26 41 93 35 82 54 13 26 92 1 42 8 27 10 54 59 77 18 13 15 56 43 4 21 12 61 46 79 32 32 0 49 81 84 44 55 24 81 60 69 22 40 32 10 56 72 65 11 20 12 82 34 26 72 77 32 100 62 20 92 31 75 54 21 84 1 85 6 18 65 29 27 9 
11 86 53 67 11 100 96 95 91 3 94 67 14 21 55 15 64 5 91 77 83 14 66 94 50 7 92 78 60 55 83 61 97 90 48 50 85 13 89 36 58 40 1 9 42 51 14 97 72 80 63 58 52 94 79 95 50 46 94 68 97 4 32 83 98 87 20 74 38 65 97 10 67 25 13 37 86 56 79 23 32 64 4 81 92 41 15 20 61 46 87 63 33 5 28 55 1 45 76 88 
34 3 81 86 26 74 79 30 63 19 29 1 70 73 62 95 3 6 2 16 67 22 36 0 65 63 38 87 3 14 0 79 25 26 75 74 39 57 25 16 55 40 31 87 21 24 28 65 49 77 80 76 77 59 45 73 100 89 1 33 53 46 28 68 23 64 82 59 20 71 71 19 73 52 39 33 20 14 78 15 34 41 43 17 68 65 6 66 81 95 11 62 96 74 27 48 30 9 92 84 
22 39 43 86 16 67 90 25 9 11 75 73 11 83 61 6 11 20 95 57 65 17 33 3 28 97 59 12 7 33 92 37 22 42 31 14 46 69 76 34 13 52 78 33 52 72 58 67 91 17 30 49 14 66 47 85 60 89 22 26 76 22 58 78 22 39 19 52 55 79 63 47 82 99 23 27 71 43 84 25 70 30 85 67 81 71 90 52 37 46 3 32 90 41 49 68 49 4 51 73 
23 51 59 53 45 12 96 80 73 62 37 78 95 90 94 86 19 22 67 95 18 21 30 23 20 4 23 69 99 40 82 98 92 0 13 70 15 52 16 84 82 87 52 23 36 7 44 48 99 47 100 75 56 51 17 4 83 27 68 17 14 70 26 3 34 77 76 46 16 31 98 67 8 82 53 20 31 11 23 3 23 31 11 10 58 84 74 28 42 18 12 94 55 20 24 28 41 32 52 3 
9 90 32 51 81 42 46 71 0 51 90 54 14 39 61 70 83 50 89 28 76 20 72 91 91 12 62 65 62 57 32 64 81 36 16 25 16 84 39 62 46 48 92 52 81 96 0 30 45 94 42 63 55 36 17 7 97 23 19 69 80 98 52 21 86 93 27 29 37 40 12 58 93 92 82 88 47 2 61 32 51 70 18 82 95 59 33 56 3 100 55 7 37 82 16 2 71 18 76 68 
65 52 12 5 33 87 94 15 18 69 76 72 21 62 13 59 25 31 63 4 26 56 18 83 80 97 56 19 42 18 67 41 84 5 89 98 58 16 96 88 25 60 50 48 14 35 39 19 27 73 75 14 14 49 53 91 0 19 92 71 96 48 53 70 10 81 62 87 66 36 47 31 90 9 1 76 54 51 32 39 24 77 97 28 16 18 93 96 5 64 39 28 100 50 65 28 79 14 21 38 
82 13 44 58 22 23 61 26 5 15 63 62 44 58 11 36 91 14 96 9 82 48 0 9 43 17 27 100 66 11 60 7 67 85 32 26 9 85 31 17 87 30 8 93 17 92 31 28 4 29 36 69 85 34 9 1 0 46 42 14 56 49 93 34 54 69 92 51 24 71 58 95 66 49 24 21 34 87 23 67 7 84 0 35 64 34 96 82 24 10 75 88 32 39 40 48 54 40 81 51 
45 28 72 94 83 58 0 72 18 1 71 16 17 77 79 74 24 97 31 55 80 88 99 100 85 85 48 92 4 58 65 70 50 15 59 64 86 50 21 63 66 98 26 88 33 10 96 62 78 13 75 73 69 5 6 91 47 35 63 11 21 91 30 31 67 63 78 68 31 62 17 34 6 71 42 17 93 24 12 71 67 41 13 100 21 35 13 3 100 2 70 67 92 34 13 97 82 35 87 17 
18 55 44 53 30 21 43 90 86 71 41 6 7 54 90 47 89 86 25 40 41 19 30 77 26 100 42 62 28 91 13 36 97 32 60 34 84 39 79 44 43 72 68 43 61 46 75 53 4 24 86 72 58 22 59 5 75 20 22 48 40 31 1 8 84 93 48 14 50 51 45 39 32 17 77 5 38 44 39 45 28 43 85 48 97 8 1 90 8 100 9 70 0 66 19 17 79 7 96 14 
85 56 63 90 33 82 39 39 50 12 69 22 28 3 94 69 50 39 42 22 70 11 40 64 8 94 25 21 93 29 68 90 18 62 12 99 92 38 7 88 55 85 19 30 83 93 30 1 14 7 68 43 26 99 51 4 95 48 15 9 31 35 23 87 54 6 86 53 64 99 97 100 85 19 15 84 11 10 37 51 89 14 34 64 94 29 7 3 5 22 32 10 22 49 58 23 44 48 48 33 
46 31 30 34 89 78 85 44 42 82 16 57 19 91 100 84 30 40 61 95 37 47 44 87 8 86 11 96 41 8 17 28 85 42 93 72 48 12 67 32 55 2 95 85 9 45 47 87 92 84 17 5 73 53 32 59 26 76 52 3 31 84 87 91 98 83 93 74 77 22 87 95 72 37 90 46 55 20 76 91 68 34 57 32 69 8 80 77 21 75 48 5 32 90 61 73 68 100 99 39 
49 13 55 55 79 19 10 68 68 35 41 38 4 82 54 74 71 85 98 33 81 38 5 63 93 18 1 40 74 92 91 45 39 66 11 66 47 51 60 24 47 70 68 22 88 10 76 1 30 100 9 68 57 15 10 6 65 12 86 20 5 90 8 6 72 23 65 36 26 63 18 68 55 81 39 89 69 91 68 4 42 8 96 48 40 14 53 58 17 14 60 40 91 33 29 19 27 19 81 78 
34 95 16 79 97 45 67 2 95 34 36 39 19 67 52 44 35 69 45 64 96 61 84 87 69 0 7 58 80 21 84 18 73 14 62 85 27 100 2 28 23 18 99 57 5 24 0 71 82 21 4 7 74 79 31 2 17 28 93 34 59 16 23 73 66 59 70 22 71 75 87 34 39 36 77 73 6 77 6 25 45 2 17 9 4 42 79 49 95 65 78 98 45 9 8 41 19 34 33 38 
32 32 56 13 4 18 39 70 87 10 63 85 15 52 83 69 9 29 41 31 27 41 97 63 31 25 60 56 7 14 23 87 29 53 19 52 66 38 25 9 1 75 34 7 7 79 28 22 47 96 20 68 11 56 60 96 89 9 58 79 86 1 62 74 71 96 0 49 94 67 75 48 63 37 28 100 17 63 56 75 35 59 3 94 91 81 70 41 61 24 64 71 34 9 74 27 38 65 80 60 
84 72 9 63 32 28 35 66 9 66 88 79 48 71 34 89 10 52 35 70 38 22 86 98 71 78 96 12 90 73 63 90 98 5 54 28 17 69 92 87 87 49 56 68 54 43 56 93 67 79 30 43 0 37 57 80 70 15 67 75 43 18 59 25 38 45 57 40 40 27 73 42 17 69 98 0 20 66 53 14 8 95 90 4 0 72 24 58 40 0 65 54 89 38 45 41 29 68 17 29 
69 75 40 13 54 24 84 26 78 32 55 53 38 89 15 63 68 98 81 69 31 80 13 99 81 28 71 17 80 89 9 67 65 7 43 98 74 11 80 76 88 86 61 23 55 48 60 91 4 57 57 69 48 71 61 65 60 32 85 60 51 95 58 89 2 78 27 50 76 26 28 61 41 0 83 66 8 100 76 14 60 17 87 0 43 60 60 74 41 14 51 62 12 82 24 82 3 89 11 86 
88 100 22 28 62 58 48 42 63 55 30 68 71 2 72 48 72 72 85 43 14 58 16 35 31 62 61 11 36 89 83 19 27 24 45 93 23 28 97 54 17 51 50 94 94 30 17 72 81 17 60 12 3 94 27 3 28 41 55 24 27 7 75 25 15 59 4 31 68 45 84 94 84 81 98 41 71 8 10 4 41 62 0 12 89 27 89 38 77 24 30 91 10 88 59 93 64 44 12 77 
16 60 33 66 11 75 57 72 65 5 38 36 8 67 59 1 57 71 78 80 89 89 61 31 47 54 53 57 9 92 59 9 63 31 72 93 31 23 75 38 24 11 2 13 47 79 21 16 96 86 37 15 57 46 96 32 31 31 43 81 60 12 41 92 32 77 52 83 29 38 78 30 48 76 78 89 60 56 68 41 82 77 73 91 88 55 81 31 90 95 31 57 14 69 20 6 24 36 83 74 
99 47 71 19 4 41 47 70 75 26 70 75 68 87 100 23 21 24 6 30 52 52 89 10 28 66 65 35 15 53 89 93 76 59 63 98 40 54 57 82 0 42 77 19 81 61 4 18 26 6 44 73 52 18 87 65 51 50 20 33 11 30 6 95 1 95 0 11 73 92 19 5 58 84 45 90 64 93 77 53 51 92 1 90 23 52 81 47 44 20 39 85 36 95 1 22 31 3 64 12 
57 85 62 69 5 87 52 48 20 9 88 64 57 28 34 84 63 5 16 100 51 4 39 77 2 33 25 47 1 88 71 19 60 51 14 71 83 69 25 25 87 42 96 88 40 91 76 48 98 21 17 21 50 11 99 52 84 64 71 74 58 34 87 46 97 69 45 57 41 4 26 1 2 15 57 7 25 75 67 57 74 90 71 59 91 93 19 3 99 71 75 33 0 55 99 71 29 97 66 86 
71 6 10 82 80 54 14 48 71 52 12 65 24 3 86 84 90 98 98 1 83 12 56 59 81 74 56 93 33 52 4 31 40 43 67 49 51 64 83 8 38 90 37 20 58 93 61 61 59 85 73 1 35 7 35 44 48 30 32 82 64 88 13 58 33 54 79 25 34 66 45 60 36 63 17 38 58 91 36 21 63 28 26 46 11 11 49 82 61 42 48 12 4 46 4 56 11 16 64 22 
69 5 57 90 99 36 5 24 81 63 51 1 64 84 56 94 71 26 43 37 60 43 2 25 73 33 89 62 78 51 31 11 64 41 61 72 17 55 19 25 60 37 58 40 45 63 27 5 6 1 96 65 23 92 89 55 87 86 18 72 43 73 27 20 79 69 38 53 89 34 24 96 1 65 82 46 5 15 36 12 27 33 81 48 40 15 46 60 84 47 90 95 60 100 45 5 59 31 29 38 
65 71 23 54 14 67 2 72 92 93 47 36 45 67 45 57 84 10 39 36 75 38 68 42 46 84 2 43 70 5 74 79 36 17 9 28 41 46 16 45 50 85 0 23 62 26 94 35 50 44 93 14 3 96 90 42 45 37 64 51 76 41 97 52 4 41 57 97 84 49 44 80 77 78 42 13 96 93 44 83 71 97 40 50 44 37 38 9 94 97 44 34 79 100 78 26 66 3 43 48 
60 15 9 63 83 59 28 71 10 97 97 90 36 40 35 92 74 37 88 88 43 68 80 26 50 11 0 39 86 9 26 79 65 3 5 38 57 68 89 95 62 62 84 30 86 36 52 12 32 51 94 79 10 82 99 39 96 1 86 75 51 59 99 6 67 34 25 52 71 0 7 65 18 43 36 69 71 43 2 77 2 37 59 75 64 27 79 19 94 72 44 32 33 51 2 74 21 89 47 53 
65 63 43 56 54 59 24 83 69 28 1 75 15 57 20 94 28 31 76 54 99 85 69 70 72 26 15 74 91 54 4 18 58 34 61 51 77 72 38 8 92 32 45 75 17 53 55 44 63 20 39 7 40 93 53 46 41 65 5 65 36 95 91 69 53 58 94 40 64 68 90 86 67 61 63 39 89 24 84 60 99 16 65 26 93 54 62 92 44 58 66 100 83 78 67 73 64 65 34 38 
87 8 50 67 69 92 79 10 25 7 53 24 2 85 74 34 62 4 73 84 48 25 49 11 85 65 10 23 43 67 98 38 16 30 5 7 75 73 7 12 26 42 11 77 11 28 77 52 86 40 35 56 5 41 89 69 16 17 11 76 21 3 49 71 71 74 42 79 53 88 55 3 69 2 93 70 40 21 92 22 34 48 98 1 47 32 53 8 96 91 16 16 44 84 88 48 43 16 85 52 
40 10 8 11 12 67 27 5 32 50 58 23 38 49 24 29 72 42 0 61 0 74 43 70 95 69 50 60 0 95 61 58 57 63 1 67 97 60 62 99 96 70 63 71 28 27 62 91 63 49 30 3 43 73 81 98 35 65 63 91 71 80 54 87 46 70 93 72 77 43 58 77 36 61 18 48 28 54 0 70 25 46 41 73 51 72 18 30 40 30 3 48 41 33 76 85 76 36 56 19 
52 81 45 17 69 32 96 45 21 95 59 78 46 85 1 93 11 45 72 99 68 5 71 78 89 36 95 58 96 83 78 68 15 28 70 10 90 45 47 61 91 61 55 58 37 7 26 85 32 86 56 52 11 90 55 3 50 31 92 71 80 52 48 29 28 89 31 2 22 46 2 89 26 11 79 97 22 61 81 35 63 64 61 26 77 19 53 31 8 81 6 47 84 59 92 94 46 11 3 90 
25 94 55 58 62 41 45 97 32 70 7 81 17 54 42 100 51 75 83 58 64 36 63 54 18 74 26 16 24 39 16 49 13 15 63 80 35 62 59 60 98 74 30 70 38 65 58 68 2 87 100 5 91 87 85 44 1 18 51 6 66 4 69 36 52 20 32 44 29 61 63 7 40 40 90 55 2 8 95 69 24 89 18 32 82 35 52 47 7 1 65 50 90 0 19 88 62 76 63 63 
2 76 46 16 97 46 35 58 0 47 95 73 34 36 22 78 33 63 30 75 89 70 39 15 47 99 52 34 1 30 45 58 31 90 23 65 85 51 22 91 73 74 57 79 31 57 42 60 85 44 27 30 83 41 58 93 8 29 51 72 10 89 94 15 65 36 22 34 57 29 87 36 2 89 22 29 26 47 100 47 39 12 80 85 48 45 17 79 32 4 15 47 98 38 26 47 56 80 74 77 
38 23 68 82 23 37 5 84 24 27 97 19 86 92 81 15 72 94 76 25 91 93 73 18 37 79 99 68 91 4 90 92 17 1 27 67 37 59 72 44 100 34 86 92 20 43 93 100 18 99 70 34 49 56 47 60 57 92 100 64 28 15 28 2 82 88 20 98 40 24 80 88 4 26 50 86 52 41 37 84 24 66 27 99 18 2 95 93 40 60 56 56 15 78 73 71 27 47 50 88 
15 23 9 92 64 91 14 21 81 28 4 64 4 60 12 68 82 21 10 94 48 4 42 44 4 91 22 80 88 54 54 90 63 80 1 46 36 13 46 82 52 19 44 48 99 14 27 38 57 71 79 56 84 15 67 66 95 15 76 6 11 55 94 3 86 8 8 91 96 76 98 60 74 64 74 4 30 85 75 2 62 35 93 76 59 38 77 96 98 47 71 53 82 8 93 41 33 15 99 78 
6 58 65 40 54 45 71 1 89 45 26 63 78 55 92 62 23 47 8 76 19 15 79 69 64 10 9 7 45 22 21 16 49 81 69 3 4 66 81 67 58 48 15 69 28 64 100 26 98 95 93 97 65 23 65 3 35 16 24 45 90 31 60 21 38 21 37 39 71 47 65 43 78 59 97 98 44 32 97 97 81 93 81 29 46 96 85 92 10 47 68 62 56 91 35 76 58 22 28 87 
28 86 41 76 69 58 75 3 56 87 76 87 41 34 44 70 75 60 75 88 86 8 74 74 62 97 14 54 17 14 41 10 83 43 97 67 91 63 90 93 41 49 46 100 98 12 63 48 66 37 18 44 12 62 88 4 59 36 3 100 63 37 8 9 46 40 34 79 24 48 15 36 39 28 28 65 11 14 78 35 84 51 37 88 94 50 15 75 59 100 39 15 9 56 68 65 90 4 12 73 
66 12 77 87 77 27 15 45 51 86 54 77 93 60 40 18 85 75 41 40 74 14 55 50 53 95 79 48 28 38 18 42 49 71 76 47 98 64 0 1 84 40 3 3 4 26 64 48 96 73 42 79 9 65 75 24 58 58 94 1 26 50 38 10 29 60 52 28 35 24 2 99 84 17 32 36 3 59 60 38 88 84 33 63 27 60 1 59 26 20 58 59 7 96 30 14 2 1 5 52 
26 7 99 60 24 26 67 65 51 47 49 6 6 85 16 89 52 80 41 79 86 82 52 32 97 64 65 22 64 60 45 58 23 6 81 22 74 45 41 26 68 40 52 84 35 66 92 32 95 29 71 77 73 98 60 61 8 51 29 33 13 95 42 58 100 4 67 83 66 20 22 29 34 31 62 6 67 87 90 64 73 70 80 52 65 51 78 88 77 97 19 59 63 77 48 67 71 89 62 24 
19 26 15 13 21 54 85 80 32 18 22 33 61 0 16 47 77 95 17 68 22 91 50 30 96 36 5 24 14 67 56 18 17 49 16 73 57 42 83 43 90 73 64 68 24 23 55 30 32 15 59 48 83 44 92 21 86 97 35 95 39 80 52 80 85 44 56 53 18 64 2 62 63 17 9 80 44 31 26 63 84 94 29 100 73 98 97 32 77 82 21 46 88 29 66 23 10 92 59 6 
42 94 36 4 58 89 93 14 35 65 20 32 18 0 62 44 80 12 64 100 37 41 13 46 15 81 15 83 25 0 84 54 52 52 1 99 62 4 47 56 28 55 96 69 92 77 43 11 37 57 62 41 60 5 8 38 15 2 46 3 12 89 83 64 92 51 60 27 87 42 92 9 0 82 83 66 87 65 32 42 82 87 72 53 76 8 97 5 49 84 73 22 6 90 55 16 35 49 14 37 
69 57 75 78 32 72 69 15 21 1 13 82 97 7 90 25 84 62 48 95 72 20 98 45 53 18 68 55 29 42 67 14 70 20 43 25 50 100 98 83 39 80 48 30 24 72 39 15 7 6 81 20 83 21 20 81 82 59 93 18 0 83 35 34 76 28 87 27 40 74 40 90 39 17 61 65 41 22 31 32 52 38 47 89 98 7 27 10 44 64 35 12 1 17 6 1 11 90 77 67 
36 6 70 92 27 48 98 31 97 52 15 3 48 78 94 30 22 72 33 1 74 0 52 48 63 26 11 37 10 82 21 21 28 2 42 41 21 84 54 25 84 98 88 86 48 75 0 56 66 42 66 97 74 61 64 47 31 49 78 78 3 22 76 49 44 27 56 11 7 52 4 78 46 90 70 94 32 44 86 27 97 93 66 25 25 63 99 83 100 19 22 60 77 29 30 43 23 7 39 1 
9 93 71 31 26 62 97 89 75 16 13 71 73 91 32 57 94 81 30 36 20 1 31 36 7 42 12 21 12 49 18 27 33 83 55 79 17 26 4 45 90 47 29 8 12 51 35 38 11 84 1 10 36 23 16 49 45 32 97 52 44 32 49 91 50 2 65 48 25 54 58 53 14 16 70 27 36 89 58 87 94 27 1 46 93 46 80 23 61 80 82 69 71 41 100 12 2 67 30 92 
46 9 34 5 70 7 19 65 11 2 97 23 77 20 70 64 96 79 18 17 64 91 13 43 89 9 95 26 84 6 29 43 82 47 67 38 71 95 87 83 9 48 63 95 83 14 24 9 51 33 73 18 34 99 88 83 85 4 17 66 83 20 74 70 34 25 62 19 73 11 27 36 1 72 81 24 98 56 17 76 1 59 42 57 17 36 22 20 5 98 93 27 43 20 16 24 53 94 24 13 
40 60 91 46 8 13 33 21 49 91 52 81 5 5 9 23 10 31 83 37 13 50 72 6 61 56 97 2 60 93 0 35 6 24 60 71 10 59 73 82 74 49 65 80 78 3 58 79 53 11 72 80 48 30 52 69 26 79 4 60 98 9 23 68 12 0 100 19 31 86 21 30 46 71 30 50 71 99 40 75 48 86 26 35 21 81 25 73 57 79 55 55 81 37 54 55 41 0 34 9 
45 31 60 81 68 81 12 63 93 17 24 32 41 91 90 68 22 7 60 58 23 56 6 72 71 46 67 84 26 58 98 53 39 67 25 6 63 59 70 71 14 100 78 76 85 62 70 93 25 6 20 42 3 69 58 72 76 23 93 70 13 92 43 100 47 0 83 7 81 11 39 48 38 54 9 86 87 17 82 36 25 21 12 25 31 73 55 13 20 77 34 62 87 75 45 20 39 56 53 71 
8 12 61 76 83 59 15 49 94 57 74 73 34 73 32 54 78 76 9 20 3 78 6 81 52 53 71 24 11 35 73 2 89 20 44 90 13 73 74 18 17 80 32 46 64 13 98 33 83 58 50 7 57 41 40 60 30 94 25 57 51 44 47 7 14 93 13 76 55 3 65 53 54 13 34 90 77 3 1 27 10 24 29 30 99 19 78 36 93 94 58 89 35 36 27 6 91 69 5 99 
66 16 98 11 81 7 92 21 34 77 23 13 20 49 36 9 84 68 21 93 63 2 56 81 13 99 60 80 48 58 16 4 20 42 20 11 84 40 10 93 4 89 38 15 81 19 7 70 49 77 99 82 6 10 30 77 25 24 22 7 52 38 23 75 96 43 27 43 47 88 87 81 100 11 65 73 88 60 14 51 69 96 37 72 9 53 8 42 57 53 33 74 39 56 94 72 15 2 95 40 
20 24 54 10 34 51 94 25 18 42 66 84 4 10 36 65 87 13 40 36 55 59 10 88 71 86 76 38 50 6 88 39 21 64 23 18 42 6 86 86 28 72 61 33 90 55 10 45 31 79 12 99 66 19 31 7 100 13 22 10 87 35 24 4 21 76 69 92 31 23 90 9 45 26 49 36 7 63 40 43 62 58 2 6 42 62 54 92 81 51 64 91 87 12 95 34 88 12 87 39 
83 7 5 71 17 10 44 76 28 96 12 92 9 32 38 2 26 45 40 68 61 66 69 31 44 69 34 65 26 80 64 7 68 86 67 87 92 70 23 17 39 27 36 96 11 50 68 36 61 78 64 57 11 80 8 97 39 56 61 55 81 29 25 80 61 4 32 3 23 1 42 92 74 80 23 60 4 89 47 69 65 27 69 61 88 98 79 11 59 55 5 1 6 47 42 7 96 85 89 55 
93 61 47 36 12 55 13 94 19 34 66 9 31 86 14 73 98 66 66 56 77 56 1 35 84 93 67 46 96 98 9 91 64 72 66 100 95 58 2 18 42 58 36 92 69 15 59 86 57 43 6 17 86 21 7 14 87 21 99 20 88 74 53 76 23 84 73 37 51 41 56 59 66 30 32 29 80 44 46 21 37 57 59 92 22 94 41 88 1 87 74 89 15 78 78 19 39 58 36 57 
